<?xml version="1.0" encoding="utf-8"?>
<!-- Generator: Adobe Illustrator 19.2.0, SVG Export Plug-In . SVG Version: 6.00 Build 0)  -->
<svg version="1.1" xmlns="http://www.w3.org/2000/svg" xmlns:xlink="http://www.w3.org/1999/xlink" x="0px" y="0px" width="536.9px"
	 height="472.6px" viewBox="0 0 536.9 472.6" style="enable-background:new 0 0 536.9 472.6;" xml:space="preserve">
<style type="text/css">
	.st0{fill:#F6FAFE;}
	.st1{opacity:0.9;fill:#EBF3FD;}
	.st2{clip-path:url(#SVGID_2_);}
	.st3{fill:#75A1FC;}
	.st4{fill:#9EC3FD;}
	.st5{fill:#F5FAFE;}
	.st6{fill:#8DC6FF;}
	.st7{fill:#BFDCFE;}
	.st8{fill:#3CBFBD;}
	.st9{fill:#FFFFFF;}
	.st10{fill:#0371B0;}
	.st11{fill:#000D8A;}
	.st12{fill:#FBB4AE;}
	.st13{fill:#0152DF;}
	.st14{fill:#010101;}
	.st15{fill:#FCB7B0;}
	.st16{fill:#EAA3A0;}
	.st17{fill:#F4F4F4;}
	.st18{fill:#B6C2C9;}
	.st19{fill:#FECC02;}
	.st20{fill:#E5B900;}
	.st21{fill:#FFEFAE;}
	.st22{fill:#0082BC;}
	.st23{fill:#4F3928;}
	.st24{fill:#CCCCCC;}
	.st25{fill:#7759A6;}
	.st26{fill:#010C8C;}
	.st27{fill:#FCB5B1;}
	.st28{opacity:7.000000e-02;}
</style>
<g id="Layer_2">
</g>
<g id="Layer_4">
</g>
<g id="Layer_3">
	<path class="st0" d="M339,25.9c-141-75-309,59-309,180c0,236,163,245,269,245c80,0,267.6-62.1,233-219.6
		c-30-136.4-142.3-49.8-171-88.4C343.2,119,391.4,53.7,339,25.9z"/>
	<path class="st1" d="M0,270.9c0,113,135,44,185,91c45.5,42.8,12.6,85,78.6,107c73.1,24.3,240.8-72.2,224.4-259
		c-8-91-94.5-125.2-141-145C174-8.6,0,125.4,0,270.9z"/>
	<g>
		<defs>
			<path id="SVGID_1_" d="M263.6,468.9c49.4,16.5,142.1-22.4,191.9-107H185C230.5,404.7,197.6,446.9,263.6,468.9z"/>
		</defs>
		<clipPath id="SVGID_2_">
			<use xlink:href="#SVGID_1_"  style="overflow:visible;"/>
		</clipPath>
		<g class="st2">
			<rect x="396.4" y="450.7" class="st3" width="59.1" height="38.2"/>
			<rect x="312.8" y="361.9" class="st3" width="80.7" height="37.6"/>
			<rect x="164.5" y="450.7" class="st3" width="61.9" height="38.2"/>
			<rect x="312.8" y="450.7" class="st3" width="80.7" height="38.2"/>
			<rect x="396.4" y="402.3" class="st3" width="59.1" height="45.6"/>
			<rect x="396.4" y="361.9" class="st3" width="59.1" height="37.6"/>
			<rect x="229.3" y="361.9" class="st3" width="80.7" height="37.6"/>
			<rect x="312.8" y="402.3" class="st3" width="80.7" height="45.6"/>
			<rect x="164.5" y="402.3" class="st3" width="61.9" height="45.6"/>
			<rect x="229.3" y="402.3" class="st3" width="80.7" height="45.6"/>
			<rect x="164.5" y="361.9" class="st3" width="61.9" height="37.6"/>
			<rect x="229.3" y="450.7" class="st3" width="80.7" height="38.2"/>
			<g>
				<rect x="226.4" y="361.9" class="st4" width="2.8" height="37.6"/>
				<rect x="226.4" y="402.3" class="st4" width="2.8" height="45.6"/>
				<rect x="226.4" y="450.7" class="st4" width="2.8" height="38.2"/>
				<rect x="310" y="361.9" class="st4" width="2.8" height="37.6"/>
				<rect x="310" y="402.3" class="st4" width="2.8" height="45.6"/>
				<rect x="310" y="450.7" class="st4" width="2.8" height="38.2"/>
				<rect x="393.6" y="361.9" class="st4" width="2.8" height="37.6"/>
				<rect x="393.6" y="402.3" class="st4" width="2.8" height="45.6"/>
				<rect x="393.6" y="450.7" class="st4" width="2.8" height="38.2"/>
				<polygon class="st4" points="393.6,399.4 312.8,399.4 310,399.4 229.3,399.4 226.4,399.4 164.5,399.4 164.5,402.3 226.4,402.3 
					229.3,402.3 310,402.3 312.8,402.3 393.6,402.3 396.4,402.3 455.5,402.3 455.5,399.4 396.4,399.4 				"/>
				<polygon class="st4" points="393.6,447.9 312.8,447.9 310,447.9 229.3,447.9 226.4,447.9 164.5,447.9 164.5,450.7 226.4,450.7 
					229.3,450.7 310,450.7 312.8,450.7 393.6,450.7 396.4,450.7 455.5,450.7 455.5,447.9 396.4,447.9 				"/>
			</g>
		</g>
	</g>
	<path class="st5" d="M500.3,90c-11.2-0.1-31.5,29.3-6.5,41.6c27.1,13.3,55.3-24.6,35.6-35.5c-7.5-4.1-12.7,5.2-18.6,2.2
		C506.3,96.1,505.1,90.1,500.3,90z"/>
	<g>
		<g>
			<path class="st6" d="M23.8,302.3c0.4-6.4,3-13,5.7-19.9c4.5-11.6,9.6-24.8,7-42.2l5-0.8c2.9,18.8-2.7,33.2-7.2,44.8
				c-2.7,6.8-4.9,12.7-5.3,18.4c-0.5,7.7,0.8,13.3,3.9,16c1.1,1,2.2,1.5,3.3,1.7h41c0.5-0.1,1-0.2,1.6-0.2h3.5
				c0.5,0,1.1,0.1,1.6,0.2h42.5c1.1,0,2,1.2,2,2.7c0,1.5-0.9,2.7-2,2.7H88.2c0,0.1,0,0.3,0,0.4c0,2.9-2,5.3-4.7,6v10.9h-6.3v-10.9
				c-2.7-0.6-4.7-3.1-4.7-6c0-0.1,0-0.3,0-0.4H34.5c-0.7,0-1.3-0.5-1.7-1.2c-1.1-0.5-2.3-1.2-3.4-2.1
				C25.1,318.7,23.2,311.9,23.8,302.3z"/>
			<path class="st6" d="M45.2,386.9c0,0-0.7-0.7,0-2.1l-4.7,1.5c0,0-2.8-2.6,7.4-7.9c10.4-5.5,25.1-11.3,28.3-12.5v-22.5h8.6v22.5
				c3.2,1.3,17.9,7.1,28.3,12.5c10.1,5.3,7.4,7.9,7.4,7.9l-4.7-1.5c0.7,1.4,0,2.1,0,2.1l-35.3-12.6l0.2-0.3h-0.4l0.2,0.3L45.2,386.9
				z"/>
			<circle class="st6" cx="46.2" cy="389.7" r="3"/>
			<circle class="st6" cx="114.5" cy="389.7" r="3"/>
			<circle class="st6" cx="38.9" cy="389.7" r="3"/>
			<circle class="st6" cx="121.7" cy="389.7" r="3"/>
		</g>
		<g>
			<path class="st7" d="M40.5,305.7h79.7c4,0,7.2,4,7.2,9c0,0.8-0.1,5.3-0.2,6H33.5c-0.1-0.7-0.2-5.3-0.2-6
				C33.3,309.7,36.5,305.7,40.5,305.7z"/>
			<path class="st7" d="M34.1,221.6C34.1,221.6,34.1,221.6,34.1,221.6c0.4-0.2,3.2-0.3,3.6-0.3c0.4,0,0.8,0,1.2,0.1
				c4.3-0.1,12.9-0.3,14.7-0.3c14-0.2,25.9,2.4,26.5,5.8c2.5,14,2.3,28.4-0.4,42.4c-0.7,3.4-12.4,5.9-26.1,5.8
				c-1.7,0-10.1-0.2-14.4-0.3c-0.4,0.1-0.8,0.1-1.2,0.1c-0.5,0-3.2-0.1-3.6-0.2c0,0,0-0.1,0-0.1c-0.9-0.2-1.5-0.8-1.4-1.5
				c3.5-16.4,3.4-33.5-0.4-49.9C32.6,222.5,33.2,221.9,34.1,221.6z"/>
		</g>
	</g>
	<g>
		<g>
			<path class="st6" d="M504.4,301.3c-0.4-6.4-3-13-5.7-19.9c-4.5-11.6-9.6-24.8-7-42.2l-5-0.8c-2.9,18.8,2.7,33.2,7.2,44.8
				c2.7,6.8,4.9,12.7,5.3,18.4c0.5,7.7-0.8,13.3-3.9,16c-1.1,1-2.2,1.5-3.3,1.7h-41c-0.5-0.1-1-0.2-1.6-0.2h-3.5
				c-0.5,0-1.1,0.1-1.6,0.2h-42.5c-1.1,0-2,1.2-2,2.7c0,1.5,0.9,2.7,2,2.7H440c0,0.1,0,0.3,0,0.4c0,2.9,2,5.3,4.7,6v10.9h6.3v-10.9
				c2.7-0.6,4.7-3.1,4.7-6c0-0.1,0-0.3,0-0.4h37.9c0.7,0,1.3-0.5,1.7-1.2c1.1-0.5,2.3-1.2,3.4-2.1
				C503.1,317.7,505,310.9,504.4,301.3z"/>
			<path class="st6" d="M483,385.9c0,0,0.7-0.7,0-2.1l4.7,1.5c0,0,2.8-2.6-7.4-7.9c-10.4-5.5-25.1-11.3-28.3-12.5v-22.5h-8.6v22.5
				c-3.2,1.3-17.9,7.1-28.3,12.5c-10.1,5.3-7.4,7.9-7.4,7.9l4.7-1.5c-0.7,1.4,0,2.1,0,2.1l35.3-12.6l-0.2-0.3h0.4l-0.2,0.3
				L483,385.9z"/>
			<circle class="st6" cx="482" cy="388.7" r="3"/>
			<circle class="st6" cx="413.7" cy="388.7" r="3"/>
			<circle class="st6" cx="489.2" cy="388.7" r="3"/>
			<circle class="st6" cx="406.4" cy="388.7" r="3"/>
		</g>
		<g>
			<path class="st7" d="M487.7,304.7H408c-4,0-7.2,4-7.2,9c0,0.8,0.1,5.3,0.2,6h93.6c0.1-0.7,0.2-5.3,0.2-6
				C494.9,308.7,491.7,304.7,487.7,304.7z"/>
			<path class="st7" d="M494,220.6C494,220.6,494,220.6,494,220.6c-0.4-0.2-3.2-0.3-3.6-0.3c-0.4,0-0.8,0-1.2,0.1
				c-4.3-0.1-12.9-0.3-14.7-0.3c-14-0.2-25.9,2.4-26.5,5.8c-2.5,14-2.3,28.4,0.4,42.4c0.7,3.4,12.4,5.9,26.1,5.8
				c1.7,0,10.1-0.2,14.4-0.3c0.4,0.1,0.8,0.1,1.2,0.1c0.5,0,3.2-0.1,3.6-0.2c0,0,0-0.1,0-0.1c0.9-0.2,1.5-0.8,1.4-1.5
				c-3.5-16.4-3.4-33.5,0.4-49.9C495.6,221.5,495,220.9,494,220.6z"/>
		</g>
	</g>
	<g>
		<path class="st8" d="M229.3,164c0,3.1-2.5,5.6-5.6,5.6h-3.8v13.2l-13.2-13.2h-43.2c-3.1,0-5.6-2.5-5.6-5.6v-47
			c0-3.1,2.5-5.6,5.6-5.6h60.2c3.1,0,5.6,2.5,5.6,5.6V164z"/>
		<rect x="169.1" y="128.3" class="st9" width="48.9" height="3.8"/>
		<rect x="169.1" y="137.7" class="st9" width="48.9" height="3.8"/>
		<rect x="169.1" y="147.1" class="st9" width="48.9" height="3.8"/>
	</g>
	<g>
		<path class="st10" d="M352.5,110.2h-58.9c-3.6,0-6.5,2.9-6.5,6.5v45.8c0,3.6,2.9,6.5,6.5,6.5h19.7l3.3,3.3l6.5,6.5l6.5-6.5
			l3.3-3.3h19.6c3.6,0,6.5-2.9,6.5-6.5v-45.8C359,113.1,356.1,110.2,352.5,110.2z"/>
		<path class="st9" d="M345.9,142.9v-6.5h-6.9c-0.4-2.1-1.3-4-2.4-5.7l4.9-4.9l-4.6-4.6L332,126c-1.7-1.1-3.7-2-5.7-2.4v-6.9h-6.5
			v6.9c-2.1,0.4-4,1.3-5.7,2.4l-4.9-4.9l-4.6,4.6l4.9,4.9c-1.1,1.7-2,3.7-2.4,5.7h-6.9v6.5h6.9c0.4,2.1,1.3,4,2.4,5.7l-4.9,4.9
			l4.6,4.6l4.9-4.9c1.7,1.1,3.7,2,5.7,2.4v6.9h6.5v-6.9c2.1-0.4,4-1.3,5.7-2.4l4.9,4.9l4.6-4.6l-4.9-4.9c1.1-1.7,2-3.7,2.4-5.7
			H345.9z M323,149.5c-5.4,0-9.8-4.4-9.8-9.8c0-5.4,4.4-9.8,9.8-9.8c5.4,0,9.8,4.4,9.8,9.8C332.8,145.1,328.4,149.5,323,149.5z"/>
	</g>
	<g>
		<path class="st11" d="M415.5,262.8l-64.8,19.2c-9.3,2.8-15.1,12.1-13.5,21.7c4.4,26.4,12.7,75.1,14,81.4l12-3.1
			c0,0,6.6-48.8,0.3-75.1L415.5,262.8L415.5,262.8z"/>
		<path d="M351.6,383.5l10.3-1.2l3.2,9.4c0.4,1.2-0.4,2.5-1.6,2.8l-30.9,7.1c-0.9,0.2-1.8-0.3-2.1-1.1l-0.4-1
			c-0.3-0.8,0-1.6,0.7-2.1L351.6,383.5z"/>
		<path class="st8" d="M390,213.6c-1,0.1-1.9,0.6-2.5,1.5c-1.6,2.3-3.2,6.7,0.7,12.3c1.7,2.5,12.4,1.6,15.9-0.7
			c1.2-0.8,1.8-2.3,1.5-3.8l-0.8-3.3c-0.8-3.2-3.4-5.6-6.6-6.1l-2.3-0.4L390,213.6z"/>
		<path class="st12" d="M390.8,228.3c5.9,0,3.4-13.2-0.9-12.2c0,0-25.4,6.9-34,8.2c-5.9,0.9-11.7,0.6-23.6-3c-1.7-0.5-1.9,0.2-1.7,1
			c0.2,0.7,0.7,1.3,1.3,1.7c2.3,1.4,9.1,5.1,14,5.7c8.5,1.1-1,7.2-2.9,9.5c-0.4,0.5-0.4,1.3,0.1,1.7l0,0c0.4,0.4,0.9,0.4,1.4,0.2
			c2.1-1,7.8-4.9,11.1-6.3c1.7-0.7,2.9-4.2,5.5-5C368.1,227.7,390.8,228.3,390.8,228.3z"/>
		<path class="st13" d="M415.5,262.8c-6.2,3.6-74.1,60.9-74.1,60.9l-61,63.6l8.7,4.6c0,0,54.6-38.9,70.8-49.9c16.2-11,60-26,60-26
			s36.9,1,44.9-32.7L415.5,262.8z"/>
		<path d="M284.1,386.6l6.4,5.9l-8.2,8.5c-0.7,0.8-1.9,0.8-2.6,0.1l-23.3-21.4c-0.9-0.9-1-2.3-0.1-3.3l0.6-0.7
			c0.6-0.7,1.7-0.9,2.6-0.6L284.1,386.6z"/>
		<path class="st8" d="M425.5,181.7c-8.4,9.4-24.8,29.4-28.4,30.4c-4.7,1.3-3.1,16-0.1,16.5c3,0.4,15.6-6.6,21.2-12.4
			c5.6-5.8-7.8,42.7-3,46.8c11.7,10,45,33.2,49.9,19.4c0.4-1.2-0.6-51.2-0.6-51.2l5,19.6c0.7,2.6,2.6,4.9,5.1,5.9
			c1.9,0.8,4.4,1.3,7.2,0.7c6.8-1.3,10.6-7.8,10.3-12.9c-0.3-5.1-7.7-46.4-17.3-57.1C457.1,167.8,434.6,171.6,425.5,181.7z"/>
		<path class="st14" d="M464.1,138.3c-11.2-10.3-23.6-4.2-26.1-2.4c-1.3,1-6.9,7.5-0.4,12.6c0.2,0.1,0.3,0.2,0.5,0.4
			c7.5,5.1,17.9-3.7,20-3.1c2.8,0.8-0.4,9.5,2.2,10.8c1.2,0.6,2-2.7,4.2-1.7c0,0,0.1,0,0.2,0C466.6,154.8,467.3,141.3,464.1,138.3z"
			/>
		<path class="st15" d="M464.7,154.9c-0.1,0-0.1,0-0.2,0c-2.2-1-3,2.3-4.2,1.7c-2.6-1.2,0.6-9.9-2.2-10.8c-2-0.6-12.5,8.2-20,3.1
			c0.3,4.9,1.1,11.1,1.9,14.2c1.2,4.8,3.3,7.4,7.9,8.3c1,0.2,2,0.3,3.2,0.3c3.1,0.1,8.6-3.6,10.2-7.8c0-0.1,0-0.1,0.1-0.2
			c0-0.1,0-0.1,0.1-0.2c0.2-0.5,0.3-1,0.3-1.5c0,0,4.3,0.1,4.7-4.2C466.6,155.6,465.3,155,464.7,154.9z"/>
		<path class="st16" d="M449,171.8c-1.2-0.2-2.2-0.4-3.2-0.7c0,1.5-0.1,3.1-0.3,4c-0.2,1-3.3,4.2-5,5.9c-0.5,0.5-0.3,1.4,0.5,1.6
			c3.4,0.8,11.4,1.9,15.5-2.7c0.4-0.4,0.7-1.5,1-2.8c0.7-3.5,1.3-9.1,2.6-11.9C457.9,169.2,452,172.2,449,171.8z"/>
		<path class="st14" d="M460.6,160.3l0.5-6.7l-1.9-0.1c-0.3,3.8-0.5,9.2-1.1,10.7c-0.3,0.7-1.4,2-2.8,3.2c-0.3-0.7-1.1-2.2-2.3-3.4
			c-0.9-0.9-3.6-1.8-4.9-2.1c-1.1-0.2-3.2-0.3-4.3,0.3c-1.4,0.7-2.1,1.7-2.4,2.2l-2.3-6c0,0,0.6,4.1,0.9,5.7s2.7,6.9,6.9,8.1
			s5.2-0.2,9.1-2.1s5.5-6.4,5.5-6.4l0.3-1.5L460.6,160.3z M449.7,169.5c-1.8,0-3.5-0.5-4.7-0.8c-1-0.3-2-1.3-2.6-2.3
			c0,0,0.2-2.1,2.3-2.5c2.1-0.4,4.5-0.1,6.5,1.5c2,1.5,1.5,3.5,1.5,3.5l0,0C451.8,169.3,450.7,169.5,449.7,169.5z"/>
		<path class="st12" d="M474.5,244.5c2.4-0.3,5,0.1,7,1.5c2.5,1.6,5.4,5.2,2.1,9.2c-2.5,3.1-33.6,2.2-33.6,2.2s-7,7.4-10.5,7
			c-3.5-0.4-6.2-6-4.1-10.7s10.7-5.3,10.7-5.3L474.5,244.5z"/>
	</g>
	<g>
		<path class="st17" d="M391.6,244.5C391.6,244.4,391.7,244.4,391.6,244.5V242h-97.3v2.3c0,0,0,0,0,0.1l0.2,0.4
			c1.2,2,3.5,2.4,6.1,2.4h84.6c2.6,0,4.8-0.4,6.1-2.4L391.6,244.5z"/>
		<path class="st18" d="M368.2,244.9C368.2,244.9,368.2,244.9,368.2,244.9l0.2,0.4c0.4,0.5,0.9,0.9,1.4,1.2h14.8
			c2.5,0,4.6-0.3,5.8-1.9l0.2-0.4c0,0,0,0,0-0.1l0-1.2h-22.5V244.9z"/>
		<g>
			<rect x="306.5" y="242.6" class="st18" width="48.6" height="1.7"/>
		</g>
		<g>
			<path class="st9" d="M367.7,242L355,194.2c-0.3-1.3-1.6-2.3-2.9-2.3h-68.2c-1.3,0-2,1-1.7,2.3l12.6,47.8H367.7z"/>
			<path class="st18" d="M329.1,216.9c0.6,2.4-0.8,4.4-3.3,4.4c-2.4,0-4.9-2-5.6-4.4c-0.6-2.4,0.8-4.4,3.3-4.4
				C325.9,212.5,328.4,214.5,329.1,216.9z"/>
		</g>
	</g>
	<g>
		<path class="st19" d="M87.9,102.9c0.2-9-5-16.5-14.9-16.8c-9.9-0.3-15.5,6.9-15.8,16c-0.2,7.1,4.7,9.6,8.7,15.6
			c0.8,1.2-0.2,5.7-0.2,5.7l12.3,0.3c0,0-0.7-4.6,0.2-5.7C82.7,112.3,87.7,110,87.9,102.9z"/>
		<path class="st20" d="M71.1,120.5C65.5,112.3,58.7,108.7,59,99c0.1-2.1,0.3-4.1,0.8-6c-1.6,2.6-2.4,5.7-2.5,9.2
			c-0.2,7.1,4.7,9.6,8.7,15.6c0.8,1.2-0.2,5.7-0.2,5.7l5.7,0.2C71.5,122.3,71.5,121.1,71.1,120.5z"/>
		<path class="st10" d="M65.6,123.4l0,1.7c-0.1,2.8,2.1,5.2,5,5.2l2.6,0.1c2.8,0.1,5.2-2.1,5.2-5l0-1.7L65.6,123.4z"/>
		<g>
			<polygon class="st21" points="77.5,103.2 75.6,100.6 73.6,103.1 71.7,100.4 69.7,102.9 67.8,100.3 66.3,102.2 65.3,101.4 
				67.9,98.2 69.8,100.8 71.8,98.3 73.7,101 75.7,98.5 77.6,101.1 79.6,98.6 82,101.8 81,102.6 79.6,100.7 			"/>
		</g>
		<g>
			<polygon class="st21" points="71,123.3 69.7,123.3 70,112.7 67.4,104.3 68.6,103.9 71.3,112.5 			"/>
		</g>
		<g>
			<polygon class="st21" points="74.9,123.4 73.6,123.4 73.9,112.5 77,104.1 78.2,104.6 75.2,112.8 			"/>
		</g>
		
			<rect x="72.4" y="121.2" transform="matrix(2.719990e-02 -0.9996 0.9996 2.719990e-02 -54.0594 194.7554)" class="st22" width="1.3" height="8"/>
		
			<rect x="71.2" y="124.6" transform="matrix(2.730035e-02 -0.9996 0.9996 2.730035e-02 -57.5802 195.8599)" class="st22" width="1.3" height="5.7"/>
	</g>
	<g>
		<path class="st19" d="M465.7,88.6c0.2-9-5-16.5-14.9-16.8c-9.9-0.3-15.5,6.9-15.8,16c-0.2,7.1,4.7,9.6,8.7,15.6
			c0.8,1.2-0.2,5.7-0.2,5.7l12.3,0.3c0,0-0.7-4.6,0.2-5.7C460.5,98,465.5,95.6,465.7,88.6z"/>
		<path class="st20" d="M448.9,106.2c-5.6-8.2-12.3-11.8-12.1-21.6c0.1-2.1,0.3-4.1,0.8-6c-1.6,2.6-2.4,5.7-2.5,9.2
			c-0.2,7.1,4.7,9.6,8.7,15.6c0.8,1.2-0.2,5.7-0.2,5.7l5.7,0.2C449.4,107.9,449.3,106.8,448.9,106.2z"/>
		<g>
			<polygon class="st21" points="455.4,88.8 453.5,86.2 451.5,88.7 449.6,86.1 447.5,88.6 445.7,86 444.2,87.8 443.2,87 445.7,83.9 
				447.6,86.5 449.6,84 451.5,86.6 453.5,84.1 455.4,86.7 457.5,84.2 459.8,87.5 458.8,88.2 457.4,86.3 			"/>
		</g>
		<g>
			<polygon class="st21" points="448.8,109 447.5,109 447.8,98.3 445.2,89.9 446.5,89.6 449.1,98.2 			"/>
		</g>
		<g>
			<polygon class="st21" points="452.7,109.1 451.4,109.1 451.8,98.1 454.8,89.8 456,90.2 453,98.5 			"/>
		</g>
		<path class="st10" d="M443.5,109l0,1.7c-0.1,2.8,2.1,5.2,5,5.2l2.6,0.1c2.8,0.1,5.2-2.1,5.2-5l0-1.7L443.5,109z"/>
		
			<rect x="450.3" y="106.7" transform="matrix(2.719990e-02 -0.9996 0.9996 2.719990e-02 327.9616 558.4751)" class="st22" width="1.3" height="8"/>
		
			<rect x="449.1" y="110.2" transform="matrix(2.730035e-02 -0.9996 0.9996 2.730035e-02 324.4028 559.58)" class="st22" width="1.3" height="5.7"/>
	</g>
	<g>
		<path class="st16" d="M77.2,184.3c1.2-0.2,2.2-0.4,3.2-0.7c0,1.5,0.1,3.1,0.3,4c0.2,1,3.3,4.2,5,5.9c0.5,0.5,3.7,4.2,3,4.3
			c-3.4,0.8-16.3,2.6-20.4-2c-0.4-0.4,0.8-4.9,0.5-6.2c-0.7-3.5-1.3-9.1-2.6-11.9C68.2,181.7,74.1,184.8,77.2,184.3z"/>
		<path class="st23" d="M61.6,149.4c2.9-2.7,5.4-2.9,8.3-3.7c8.2-2.4,13.7,2.6,18.3,2.9c2.7,0.1,6.9,7.5,0.4,12.6
			c-0.2,0.1-0.3,0.2-0.5,0.4c-7.5,5.1-17.9-3.7-20-3.1c-2.8,0.8,2.1,12.7-0.5,13.9c-1.2,0.6-3.7-5.9-5.9-4.9c0,0-0.1,0-0.2,0
			C59.5,167.3,58.4,152.3,61.6,149.4z"/>
		<path class="st15" d="M61.4,167.5c0.1,0,0.1,0,0.2,0c2.2-1,4.7,5.5,5.9,4.9c2.6-1.2-2.3-13.1,0.5-13.9c2-0.6,12.5,8.2,20,3.1
			c-0.3,4.9-1.3,11.1-1.9,14.2c-1.7,9.3-9.8,10.7-13.6,8.2c-3.1-2.1-6.2-3.1-7.8-7.3c0-0.1,0-0.1-0.1-0.2c0-0.1,0-0.1-0.1-0.2
			c-0.2-0.5-0.3-1-0.3-1.5c0,0-4.3,0.1-4.7-4.2C59.5,168.1,60.9,167.6,61.4,167.5z"/>
		<path class="st24" d="M103.3,228.7c0-4-4.8-17.9-5.9-21.7c-2.1-7.1-14.8-16.8-16.7-19.4c0,0,0,14.8-12.4-0.7
			c0,0-6.8,25.2-6.7,36.6c0,15.2,9.4,38.1,5.5,43.8c-0.4,0.6-0.7,1.2-1,1.8h35.3c-0.7-3.4-2.4-11.8-2.4-18.7
			C98.9,241.6,103.3,234.3,103.3,228.7z"/>
		<path class="st25" d="M136.9,228.6l-1.6-5.8c-0.4-1.7-1.6-2.9-2.9-3.2l-5.6-1.3c-1.2-0.3-2.3-0.1-3.2,0.5
			c-5.9-1.7-15-8.5-18.4-15.1c-1.6-3-3.6-8.3-6.9-9.2l-17.5-6.8c0,0,12.4,17.2,13.7,19.4c1.9,3.4,3.9,17.8,3.9,21.8
			c0,5.5,0.7,12.7,0.7,21.5c0,6.9,1.3,13.6,2,16.9c0.2,0.9,0.7,3.3,0.7,3.3l10.5,1.6l-1.9-40.2c0,0,11.4,3.1,14.8,4.3
			c1.1,0.4,2.1,0.4,2.9,0.3l3.6,0.9c1.3,0.3,2.5-0.3,3.2-1.6l1.8-3.1C137.1,231.5,137.3,230,136.9,228.6z"/>
		<path class="st13" d="M179.9,285.3c-0.8-7.9-7.2-14-15.1-14.5l-63.3-0.9l-0.5-2.5c-8.1,1.8-35.2,0-35.2,0s-21.1,28-8.5,36
			c5.2,3.3,23.1,2.3,28.6,2.4c5.4,0.1,10.5-0.7,14.3-1.3c23.6-3.3,53-17,56.4-7c0.6,1.6,1.3,5,2.3,9.3c4.2,19.9,11.1,61.5,11.1,61.5
			h9.2L179.9,285.3z"/>
		<path class="st26" d="M88.2,302.5c-3.8,0.5-22.2,3-22.2,3l71,9.1l-7.2,61.4h9.2l21.8-67.1c2-6.2-1.2-13.2-2.4-14.5
			C149.9,284.9,111.8,299.1,88.2,302.5z"/>
		<path d="M129.4,375l-2.1,7.7c-0.3,1.2,0.4,2.5,1.6,2.8l32,8.6l1.3-1.4c1.3-1.5,1-3.9-0.8-4.9L139.6,375H129.4z"/>
		<path d="M170.1,368.4l-0.6,10.4c-0.1,1.5,1.1,2.8,2.7,2.9l33.6,0.6l0.3-0.9c0.5-1.8-0.5-3.6-2.2-4.2l-23.1-8.6H170.1z"/>
		<path class="st25" d="M68.3,186.9c-0.2-0.6-22.6,7.6-22.6,7.6c-1.9,0.4-3.9,1.3-5,2.9c-7.3,10.5-4.3,17-4.3,17l9.7,11.5
			c0,0-4.3,59.8,1.4,63c0,0,9.4,1.7,14.4-3.3c4.5-4.5,6.6-10.6,8.9-16c0.3-0.6,2.4-1.5,2.8-2c4-5.6,2.2-29.2,2.2-44.5
			C75.9,211.8,70.8,194.3,68.3,186.9z"/>
		<path class="st27" d="M128.9,228.8l0.1-1.2c0.5-2.5,2.9-5,5.3-4.4l28.7,8.9l3.1,0.2l3.8-1.2c3.5-0.5,6.2,0.6,9.7,2.2l6.6,2.3
			c0.8,0.1,1.2,0.9,0.8,1.6l0,0c-0.2,0.4-0.6,0.6-1.1,0.6l-11.6-1.5c-2.7-0.1-3.8,1.8-3.1,4.4l2.1,2.6c0.4,1.1-0.6,1.8-1.7,1.9
			l-4.8-2.7c-0.2-0.1-0.5-0.3-0.6-0.5l-2.7-3l-2.4-1.1l-28.4-3.7C130,233.9,128.3,231.4,128.9,228.8z"/>
		<path class="st28" d="M98.2,228.9c-13.7-3-23.2-3.5-27.7-6.5c-4.1-2.7-22.9-19-22.9-19L46.2,226c0,0,3.4,12.5,15.4,15.8
			c14.5,4,37.4,10.4,37.4,10.4L98.2,228.9z"/>
		<path class="st25" d="M109.5,242.8l-0.9-7.2c-0.4-1.6-1.6-2.8-2.9-3.1l-5.6-1.3c-0.6-0.1-1.1-0.1-1.6-0.1L69,224.2l-21.3-20.9
			l-11.2,11.1c0,0,15.3,21.7,26.7,24.2c6,1.3,28.2,8.8,33.7,9.8c1,0.9,2.2,1.6,3.4,1.9l3.8,0.9c1.3,0.3,2.5-0.3,3.2-1.5l1.8-3
			C109.7,245.6,109.9,244.1,109.5,242.8z"/>
		<path class="st27" d="M108.1,235.2c-1.7-0.2-3.3,0.6-4.3,2c-1.4,2.1-2.8,5.5-0.8,8.7c3.3,5.3,31.8-4.8,31.8-4.8s10.9,3.4,14,3.1
			c3.2-0.3,3-5,3-5s-13.2-3-16.5-2.8C132.7,236.6,114.4,235.8,108.1,235.2z"/>
	</g>
	<g>
		<path class="st17" d="M126.9,244.5C126.8,244.4,126.8,244.4,126.9,244.5V242h97.3v2.3c0,0,0,0,0,0.1l-0.2,0.4
			c-1.2,2-3.5,2.4-6.1,2.4h-84.6c-2.6,0-4.8-0.4-6.1-2.4L126.9,244.5z"/>
		<path class="st18" d="M150.3,244.9C150.3,244.9,150.3,244.9,150.3,244.9l-0.2,0.4c-0.4,0.5-0.9,0.9-1.4,1.2h-14.8
			c-2.5,0-4.6-0.3-5.8-1.9l-0.2-0.4c0,0,0,0,0-0.1l0-1.2h22.5V244.9z"/>
		<g>
			<rect x="163.4" y="242.6" class="st18" width="48.6" height="1.7"/>
		</g>
		<g>
			<path class="st9" d="M150.8,242l12.6-47.8c0.3-1.3,1.6-2.3,2.9-2.3h68.2c1.3,0,2,1,1.7,2.3L223.6,242H150.8z"/>
			<path class="st18" d="M189.4,216.9c-0.6,2.4,0.8,4.4,3.3,4.4c2.4,0,4.9-2,5.6-4.4c0.6-2.4-0.8-4.4-3.3-4.4
				C192.6,212.5,190.1,214.5,189.4,216.9z"/>
		</g>
	</g>
	<g>
		<polygon class="st7" points="131,247.3 131,271.7 131,296.1 131,408.1 137.7,408.1 142.6,266.3 377.8,266.3 382.7,408.1 
			389.4,408.1 389.4,296.1 389.4,271.7 389.4,247.3 		"/>
	</g>
</g>
</svg>
